<?xml version="1.0" encoding="utf-8"?>
<!-- Generator: Adobe Illustrator 26.3.1, SVG Export Plug-In . SVG Version: 6.00 Build 0)  -->
<svg version="1.1" id="Слой_1" xmlns="http://www.w3.org/2000/svg" xmlns:xlink="http://www.w3.org/1999/xlink" x="0px" y="0px"
	 viewBox="0 0 500 500" style="enable-background:new 0 0 500 500;" xml:space="preserve">
<g>
	<path d="M138.2,350.5h50h174.2c7.2,0,13.1-5.9,13.1-13.1V200.2c0-7.2-5.9-13.1-13.1-13.1h-12.6c-1.1,0-2,0.9-2,2s0.9,2,2,2h12.6
		c5.1,0,9.2,4.1,9.2,9.2v137.2c0,5.1-4.1,9.2-9.2,9.2h-47v-26.1c0-1.1-0.9-2-2-2c-1.1,0-2,0.9-2,2v26.1h-18v-17.9c0-1.1-0.9-2-2-2
		c-1.1,0-2,0.9-2,2v17.9H274v-39.4c0-1.1-0.9-2-2-2c-1.1,0-2,0.9-2,2v39.4h-18.3v-43.1c0-1.1-0.9-2-2-2s-2,0.9-2,2v43.1h-16.4v-37.7
		c0-1.1-0.9-2-2-2s-2,0.9-2,2v37.7h-16.7v-19.9c0-1.1-0.9-2-2-2s-2,0.9-2,2v19.9h-16.7v-30.3c0-1.1-0.9-2-2-2s-2,0.9-2,2v30.3h-48
		c-5.1,0-9.2-4.1-9.2-9.2V200.2c0-5.1,4.1-9.2,9.2-9.2h34.2c1.1,0,2-0.9,2-2s-0.9-2-2-2h-34.2c-7.2,0-13.1,5.9-13.1,13.1v137.2
		C125,344.6,130.9,350.5,138.2,350.5z"/>
	<path d="M385.3,362.1H278.5c-3,0-5.6,2-6.4,4.9l-0.3,0.9c-0.3,1.2-1.4,2-2.6,2h-39c-1.3,0-2.4-0.9-2.7-2.2
		c-0.6-3.2-3.3-5.5-6.5-5.5H114.4c-1.1,0-2,0.9-2,2c0,12,9.8,21.8,21.8,21.8h231.2c12,0,21.8-9.8,21.8-21.8
		C387.3,363,386.4,362.1,385.3,362.1z M365.5,381.9H134.2c-9.2,0-16.8-7-17.8-15.9H221c1.3,0,2.4,0.9,2.7,2.2
		c0.6,3.2,3.3,5.5,6.5,5.5h39c3,0,5.6-2,6.4-4.8l0.3-0.9c0.3-1.2,1.4-2,2.6-2h104.7C382.3,374.9,374.7,381.9,365.5,381.9z"/>
	<path d="M188.2,278.4c-1.1,0-2,0.9-2,2v17.8c0,1.1,0.9,2,2,2s2-0.9,2-2v-17.8C190.1,279.3,189.2,278.4,188.2,278.4z"/>
	<path d="M190.1,217.5c0-1.1-0.9-2-2-2s-2,0.9-2,2v42.2c0,1.1,0.9,2,2,2s2-0.9,2-2V217.5z"/>
	<path d="M208.8,211.6c1.1,0,2-0.9,2-2v-36.4c0-1.1-0.9-2-2-2s-2,0.9-2,2v36.4C206.9,210.8,207.7,211.6,208.8,211.6z"/>
	<path d="M206.9,256.8c0,1.1,0.9,2,2,2s2-0.9,2-2v-30.6c0-1.1-0.9-2-2-2s-2,0.9-2,2V256.8z"/>
	<path d="M206.9,303.5v14.9c0,1.1,0.9,2,2,2s2-0.9,2-2v-14.9c0-1.1-0.9-2-2-2S206.9,302.4,206.9,303.5z"/>
	<path d="M313.4,183.7c-1.1,0-2,0.9-2,2v34.7c0,1.1,0.9,2,2,2c1.1,0,2-0.9,2-2v-32.8h8.5c0.9,4.5,4.9,7.9,9.6,7.9
		c5.4,0,9.8-4.4,9.8-9.8s-4.4-9.8-9.8-9.8c-4.7,0-8.7,3.4-9.6,7.9H313.4z M333.4,179.8c3.2,0,5.9,2.6,5.9,5.9s-2.6,5.9-5.9,5.9
		c-2.8,0-5.2-2-5.7-4.6c0.3-0.3,0.5-0.8,0.5-1.2s-0.2-0.9-0.5-1.2C328.3,181.8,330.6,179.8,333.4,179.8z"/>
	<path d="M315.4,232.4c0-1.1-0.9-2-2-2c-1.1,0-2,0.9-2,2v19.8c0,1.1,0.9,2,2,2c1.1,0,2-0.9,2-2V232.4z"/>
	<path d="M315.4,264.2c0-1.1-0.9-2-2-2c-1.1,0-2,0.9-2,2v30.2c0,1.1,0.9,2,2,2c1.1,0,2-0.9,2-2V264.2z"/>
	<path d="M313.4,301.5c-1.1,0-2,0.9-2,2v7.4c0,1.1,0.9,2,2,2c1.1,0,2-0.9,2-2v-7.4C315.4,302.4,314.5,301.5,313.4,301.5z"/>
	<path d="M291.5,305.3c-1.1,0-2,0.9-2,2v13.2c0,1.1,0.9,2,2,2c1.1,0,2-0.9,2-2v-13.2C293.5,306.1,292.6,305.3,291.5,305.3z"/>
	<path d="M231.5,220.4v-31.6c0-1.1-0.9-2-2-2s-2,0.9-2,2v31.6c0,1.1,0.9,2,2,2S231.5,221.5,231.5,220.4z"/>
	<path d="M247.9,220.4c0,1.1,0.9,2,2,2s2-0.9,2-2v-20.7c0-1.1-0.9-2-2-2s-2,0.9-2,2V220.4z"/>
	<path d="M249.8,191c1.1,0,2-0.9,2-2v-32.2c0-1.1-0.9-2-2-2s-2,0.9-2,2V189C247.9,190.1,248.8,191,249.8,191z"/>
	<path d="M274,213v-36.8c0-1.1-0.9-2-2-2c-1.1,0-2,0.9-2,2V213c0,1.1,0.9,2,2,2C273.1,214.9,274,214.1,274,213z"/>
	<path d="M291.5,228.2c1.1,0,2-0.9,2-2v-31.6c0-1.1-0.9-2-2-2c-1.1,0-2,0.9-2,2v31.6C289.5,227.3,290.4,228.2,291.5,228.2z"/>
	<path d="M291.5,185.6c1.1,0,2-0.9,2-2v-21.2h11.9c1.3,3.9,4.9,6.8,9.3,6.8c5.4,0,9.8-4.4,9.8-9.8c0-5.4-4.4-9.8-9.8-9.8
		c-5.1,0-9.2,3.9-9.7,8.9h-13.4c-1.1,0-2,0.9-2,2v23.1C289.5,184.7,290.4,185.6,291.5,185.6z M314.6,153.6c3.2,0,5.9,2.6,5.9,5.9
		c0,3.2-2.6,5.9-5.9,5.9c-3.2,0-5.9-2.6-5.9-5.9C308.7,156.2,311.4,153.6,314.6,153.6z"/>
	<path d="M162.5,182.7c4.6,0,8.4-3.2,9.5-7.4h14.2v29c0,1.1,0.9,2,2,2s2-0.9,2-2v-31c0-1.1-0.9-2-2-2h-16c-0.7-4.7-4.8-8.3-9.7-8.3
		c-5.4,0-9.8,4.4-9.8,9.8S157.1,182.7,162.5,182.7z M162.5,167c3.2,0,5.9,2.6,5.9,5.9c0,3.2-2.6,5.9-5.9,5.9c-3.2,0-5.9-2.6-5.9-5.9
		C156.6,169.6,159.3,167,162.5,167z"/>
	<path d="M185.3,152.1c4.7,0,8.7-3.4,9.6-7.9h12v19.1c0,1.1,0.9,2,2,2s2-0.9,2-2v-21.1c0-1.1-0.9-2-2-2h-13.9
		c-0.9-4.5-4.9-7.9-9.6-7.9c-5.4,0-9.8,4.4-9.8,9.8S179.9,152.1,185.3,152.1z M185.3,136.4c3.2,0,5.9,2.6,5.9,5.9s-2.6,5.9-5.9,5.9
		c-3.2,0-5.9-2.6-5.9-5.9S182,136.4,185.3,136.4z"/>
	<path d="M247.9,132.7V146c0,1.1,0.9,2,2,2s2-0.9,2-2v-13.3c4.5-0.9,7.9-4.9,7.9-9.6c0-5.4-4.4-9.8-9.8-9.8c-5.4,0-9.8,4.4-9.8,9.8
		C240,127.8,243.4,131.8,247.9,132.7z M249.8,117.2c3.2,0,5.9,2.6,5.9,5.9c0,3-2.3,5.5-5.2,5.8c-0.2-0.1-0.4-0.1-0.7-0.1
		c-0.2,0-0.5,0.1-0.7,0.1c-2.9-0.3-5.2-2.8-5.2-5.8C244,119.8,246.6,117.2,249.8,117.2z"/>
	<path d="M227.5,160.8v15.4c0,1.1,0.9,2,2,2s2-0.9,2-2v-15.4c4.5-0.9,7.9-4.9,7.9-9.6c0-5.4-4.4-9.8-9.8-9.8c-5.4,0-9.8,4.4-9.8,9.8
		C219.7,155.9,223.1,159.9,227.5,160.8z M229.5,145.3c3.2,0,5.9,2.6,5.9,5.9c0,2.8-2,5.2-4.6,5.7c-0.3-0.3-0.8-0.5-1.2-0.5
		c-0.5,0-0.9,0.2-1.2,0.5c-2.6-0.6-4.6-2.9-4.6-5.7C223.6,147.9,226.2,145.3,229.5,145.3z"/>
	<path d="M270.1,150.9v16.4c0,1.1,0.9,2,2,2c1.1,0,2-0.9,2-2v-16.4c4.5-0.9,7.9-4.9,7.9-9.6c0-5.4-4.4-9.8-9.8-9.8
		c-5.4,0-9.8,4.4-9.8,9.8C262.2,146,265.6,150,270.1,150.9z M272.1,135.4c3.2,0,5.9,2.6,5.9,5.9c0,3-2.3,5.5-5.2,5.8
		c-0.2-0.1-0.4-0.1-0.7-0.1c-0.2,0-0.5,0.1-0.7,0.1c-2.9-0.3-5.2-2.8-5.2-5.8C266.2,138,268.8,135.4,272.1,135.4z"/>
	<path d="M220.6,295.1l7.2-17.7h23.7l7.4,17.7c0.3,0.7,1,1.2,1.8,1.2H271c0.7,0,1.3-0.3,1.6-0.9c0.4-0.5,0.4-1.2,0.2-1.8l-25.3-60.2
		c-0.3-0.7-1-1.2-1.8-1.2h-11.6c-0.8,0-1.5,0.5-1.8,1.2L207,293.6c-0.3,0.6-0.2,1.3,0.2,1.8c0.4,0.5,1,0.9,1.6,0.9h9.9
		C219.5,296.3,220.3,295.8,220.6,295.1z M211.8,292.4l23.6-56.3h9l23.7,56.3h-6l-7.4-17.7c-0.3-0.7-1-1.2-1.8-1.2h-26.3
		c-0.8,0-1.5,0.5-1.8,1.2l-7.2,17.7H211.8z"/>
	<path d="M228.4,271.3h22.4c0.7,0,1.3-0.3,1.6-0.9c0.4-0.5,0.4-1.2,0.2-1.8l-7.3-17.3c-1.5-3.6-2.6-6.9-3.6-10.1l-0.2-0.7
		c-0.5-1.6-3.5-1.6-4,0c-1.3,4.2-2.5,7.6-3.7,10.7l-7.3,17.4c-0.3,0.6-0.2,1.3,0.2,1.8S227.8,271.3,228.4,271.3z M237.5,252.6
		c0.7-1.8,1.4-3.6,2-5.6c0.6,1.8,1.3,3.7,2.2,5.7l6.1,14.6h-16.5L237.5,252.6z"/>
	<path d="M279.9,234.1v60.2c0,1.1,0.9,2,2,2h9.6c1.1,0,2-0.9,2-2v-60.2c0-1.1-0.9-2-2-2h-9.6C280.8,232.1,279.9,233,279.9,234.1z
		 M283.9,236.1h5.7v56.3h-5.7V236.1z"/>
</g>
</svg>
