<?xml version="1.0" encoding="utf-8"?>
<!-- Generator: Adobe Illustrator 26.3.1, SVG Export Plug-In . SVG Version: 6.00 Build 0)  -->
<svg version="1.1" id="Слой_1" xmlns="http://www.w3.org/2000/svg" xmlns:xlink="http://www.w3.org/1999/xlink" x="0px" y="0px"
	 viewBox="0 0 500 500" style="enable-background:new 0 0 500 500;" xml:space="preserve">
<g>
	<path d="M249.8,97.8c-64.2,0-116.4,52.2-116.4,116.4c0,49,30.4,91,73.4,108.1v20c0,17.6,10.5,32.8,25.6,39.6v0.2
		c0,10.5,8.6,19.1,19.1,19.1h1.8c10.5,0,19.1-8.6,19.1-19.1V382c15.1-6.8,25.7-22,25.7-39.6v-22.2c40.2-18.3,68.2-58.9,68.2-105.9
		C366.3,150.1,314,97.8,249.8,97.8z M253.4,396.7h-1.8c-7.5,0-13.6-5.6-14.4-12.9c4.1,1.3,8.5,2,13.1,2h4.4c4.6,0,8.9-0.7,13.1-2
		C267,391.1,260.8,396.7,253.4,396.7z M293.5,342.4c0,15-8.6,28.1-21.1,34.5c-0.7,0.4-1.5,0.8-2.3,1.1c-0.7,0.3-1.5,0.6-2.3,0.9
		c-4.1,1.5-8.6,2.3-13.2,2.3h-4.4c-4.6,0-9.1-0.8-13.2-2.3c-0.8-0.3-1.6-0.6-2.3-1c-0.8-0.3-1.6-0.7-2.3-1.1
		c-12.5-6.4-21-19.5-21-34.5v-18.2c12,4.2,24.9,6.5,38.4,6.5c14.4,0,28.2-2.6,40.9-7.5h2.8V342.4z M290,318.6
		c-0.7,0.3-1.4,0.6-2.2,0.8v-12.6l5.8-5.8l11.8-11.8v-13.6h-4.6v11.7l-3.3,3.3l-14.3,14.3v16h0.2c0,0-0.1,0-0.2,0.1
		c-1.2,0.4-2.4,0.7-3.6,1v-30.5l-7.1-7.1v-13.3h-4.6v15.2l7.1,7.1v29.8h-0.1c-4.3,1-8.8,1.8-13.3,2.2V302H257v23.8
		c-2.3,0.1-4.7,0.2-7.1,0.2c-0.5,0-1.1,0-1.6,0v-35.6l9.6-9.6v-9.8h-4.6v7.9l-9.6,9.5v37.4c-2.5-0.1-5-0.3-7.5-0.7v-28.7l-9.2-9.2
		V266h-4.6v23.2l6.8,6.8l2.4,2.4v26.2c-2.3-0.4-4.6-0.8-6.8-1.3c-1-0.2-1.9-0.4-2.9-0.7v-17.8l-13.6-13.6v-15.4h-4.6V293l9.9,9.9
		l3.7,3.7v14.6c-0.4-0.1-0.7-0.2-1.1-0.3c-2.2-0.7-4.4-1.5-6.5-2.3c-41.9-16.1-71.7-56.8-71.7-104.3c0-61.7,50.2-111.8,111.8-111.8
		c61.7,0,111.8,50.2,111.8,111.8C361.7,261.8,331.9,302.4,290,318.6z"/>
	<path d="M319.7,152.2c-19.1-27.6-43-26.3-48.8-25.6c-12.3-11.9-30.3-4.1-34.1-2.3c-29.6-4.1-39.5,10.3-41.8,14.8
		c-29.5,4.8-29.4,30.4-29.3,33.9c-4.8,23.4,11.5,33.2,15.6,35.2c11.2,24.3,43.3,22.3,47.7,21.9c1,0.4,5,2.4,9,10.8
		c5.4,11.2,12.3,19.5,12.6,19.8l3.2,3.7l3.3-18.4c5.3,2,13.7,1.7,16.5,1.5c26.3,0,32.6-12.9,34.1-17.7c11.9-2.3,20.1-7.2,24.2-14.8
		c5.4-9.9,2.2-20.8,1-24.1C341.3,171.2,322.4,154.4,319.7,152.2z M271.7,184.6c-3.5,0-6.4,2.9-6.4,6.4s2.9,6.4,6.4,6.4
		c0.7,0,1.3-0.1,2-0.4c2.7,2.7,8.9,7.4,20.4,8.8c1.1,0.1,2.1,0.2,3.2,0.2c12.3,0,26.4-8.1,32.1-11.7c1.1,4,2.4,11.7-1.3,18.4
		c-3.5,6.4-10.9,10.6-21.8,12.6c-3.6-1.7-19.2-8.6-29.9-7.6c-7.1,0.6-11.6,1.9-14,2.9c-1.1-1-2.6-1.6-4.2-1.6
		c-0.6,0-1.1,0.1-1.6,0.2c-2.8,0.7-4.8,3.2-4.8,6.2c0,2.8,1.8,5.2,4.3,6.1c0.6,0.2,1.4,0.4,2.1,0.4c3.5,0,6.4-2.9,6.4-6.4
		c0-0.2,0-0.5-0.1-0.6c0.4-0.1,0.9-0.3,1.4-0.5h0c2.3-0.7,5.8-1.5,10.9-2c6.6-0.5,15.8,2.5,21.8,4.8c1.9,0.7,3.5,1.4,4.7,1.9
		c-1.5,4-7.4,13.8-29.7,13.8c-6.6,0.4-14.6-0.3-16.2-2c0,0-0.2-0.2-0.5-0.6c-0.3-0.4-0.7-1-1.2-1.8c-3.3-5-10.2-17.1-7.5-26
		c2.5-8.3,6.9-20,9.6-27.1c0.8-2,1.4-3.6,1.8-4.7c0.1,0,0.2,0,0.4,0c3.5,0,6.4-2.9,6.4-6.4s-2.9-6.4-6.4-6.4c-3.5,0-6.4,2.9-6.4,6.4
		c0,1.8,0.7,3.4,1.9,4.6c-1.9,4.8-8.4,21.4-11.7,32.2c-3.7,12.3,6.5,27.8,9.3,31.6l-1.9,10.9c-2.4-3.4-5.9-8.7-8.8-14.8
		c-5.7-11.8-11.9-13.2-12.6-13.4l-0.4,0l-0.3,0c-0.3,0-32.7,3.7-43.3-19c0-0.1,0.1-0.2,0.2-0.3c3.8-6.7,13.3-20.2,22.8-20.1
		c6.5,0.2,11.2,2,13.5,5c1.4,1.8,2,4.1,1.8,6.8c-2.4,0.2-4.4,1.8-5.3,4c-0.3,0.7-0.5,1.5-0.5,2.3c0,3.5,2.9,6.4,6.4,6.4
		c3.5,0,6.4-2.9,6.4-6.4c0-2.1-1-4-2.6-5.1c0.5-4.2-0.5-7.9-2.7-10.9c-3.3-4.2-9-6.5-17-6.8h-0.5c-12.4,0-22.8,16.2-26.2,22
		c-4.4-2.5-14.9-10.4-12.2-27.7c2.4,0.3,6.3,0.7,10.3,0.7c4.4,0,9.1-0.5,12.2-2.1c1.1,1,2.6,1.6,4.2,1.6c3.5,0,6.4-2.9,6.4-6.4
		c0-3.5-2.9-6.4-6.4-6.4s-6.4,2.9-6.4,6.4c0,0.3,0,0.6,0.1,0.8c-4,2-13.4,1.7-19.9,0.8c0.1-5.8,2.3-23.3,24.8-27.4
		c1.3,3.3,4.6,10.3,9.3,14.8c-0.3,0.7-0.4,1.5-0.4,2.3c0,3.5,2.9,6.4,6.4,6.4c3.5,0,6.4-2.9,6.4-6.4s-2.9-6.4-6.4-6.4
		c-1.1,0-2.1,0.3-2.9,0.8c-4.3-4.2-7.4-11.5-8.3-13.9c1.8-3.3,10.3-16,37.2-12.3c0,0,0.1,0,0.2,0l0,0.1c1.2,1.2,3.6,4,2.2,7.7
		c-0.9,2.4-3.6,6.4-6.5,10.7c-1,1.4-1.9,2.9-2.9,4.3c-3,4.7-5.7,9.2-6.6,12.7c-2.9,0.6-5,3.2-5,6.2c0,3.5,2.9,6.4,6.4,6.4
		c3.5,0,6.4-2.9,6.4-6.4c0-2.4-1.4-4.5-3.4-5.6c1.2-3.7,5.3-9.9,8.8-15c3.2-4.7,5.9-8.8,7-11.7c1.7-4.5,0.1-8.4-1.8-11
		c5.7-2.3,18.7-6,27.3,3.3l0.9,1l0.6-0.1c0.7,0.4,1.7,0.9,2.5,1.6c1,0.7,1.8,1.7,2.2,2.8c0.1,0.4,0.2,0.8,0.1,1.2
		c0,0.9-0.4,1.8-1.1,2.9c-1.5,2.1-2.9,3.8-4.2,5.2c-3.4,3.8-6.3,7.1-2,12.9c1.7,2.3,4,3.7,6.6,4.1c0.5,0,1,0.1,1.5,0.1
		c3.6,0,7.2-1.8,9.4-3.3c1,0.6,2.1,0.9,3.3,0.9c3.5,0,6.4-2.9,6.4-6.4c0-3.5-2.9-6.4-6.4-6.4c-2.5,0-4.6,1.4-5.6,3.5
		c-0.5,0.9-0.8,1.9-0.8,3c0,0.6,0.1,1.3,0.3,1.8c-2.3,1.5-5.1,2.6-7.5,2.3c-1.5-0.2-2.6-0.9-3.5-2.3c-2-2.7-1.6-3.3,1.8-7.1
		c1.3-1.5,2.9-3.3,4.6-5.7c0.1-0.1,0.2-0.3,0.3-0.5c2.1-3.2,1.8-5.9,1.3-7.6c-0.4-1.3-1.2-2.5-2-3.5c8.3,0.3,23.2,3.5,36.2,20.1
		c-3.8,0-8.8,0.8-11.8,4c-3.6,3.8-8.5,13-10.4,16.9c-3.5,0-6.4,2.9-6.4,6.4c0,3.5,2.9,6.4,6.4,6.4c3.5,0,6.4-2.9,6.4-6.4
		c0-1.9-0.8-3.6-2.2-4.8c0.3-0.7,0.8-1.6,1.2-2.4c2.3-4.5,5.8-10.5,8.2-12.9c2.3-2.4,7.3-2.6,10.6-2.4c0.6,0,1.2,0,1.7,0.1
		c3.1,2.6,18.6,17,11.6,33.3c-0.6,0.4-1.5,1-2.7,1.8c-6.3,3.9-20.5,11.7-31.4,10.3c-9.8-1.2-15.1-4.9-17.4-7.1
		c0.1-0.2,0.3-0.5,0.4-0.7c0.3-0.7,0.5-1.6,0.5-2.5C278.1,187.5,275.2,184.6,271.7,184.6z M273.5,191c0,1-0.8,1.8-1.8,1.8
		c-1,0-1.8-0.8-1.8-1.8c0-1,0.8-1.8,1.8-1.8C272.7,189.2,273.5,190,273.5,191z M259.9,225.5c0,1-0.8,1.8-1.8,1.8
		c-1,0-1.8-0.8-1.8-1.8c0-1,0.8-1.8,1.8-1.8C259.1,223.7,259.9,224.5,259.9,225.5z M258.1,174.3c0-1,0.8-1.8,1.8-1.8
		c1,0,1.8,0.8,1.8,1.8c0,1-0.8,1.8-1.8,1.8C258.9,176.2,258.1,175.4,258.1,174.3z M224.7,202.4c1,0,1.8,0.8,1.8,1.8
		c0,1-0.8,1.8-1.8,1.8c-1,0-1.8-0.8-1.8-1.8C222.9,203.2,223.7,202.4,224.7,202.4z M194.8,169.5c0-1,0.8-1.8,1.8-1.8
		c1,0,1.8,0.8,1.8,1.8c0,1-0.8,1.8-1.8,1.8C195.7,171.3,194.8,170.6,194.8,169.5z M208.6,160.8c0-1,0.8-1.8,1.8-1.8
		c1,0,1.8,0.8,1.8,1.8c0,1-0.8,1.8-1.8,1.8C209.4,162.6,208.6,161.9,208.6,160.8z M226.1,170.7c0,1-0.8,1.8-1.8,1.8
		c-1,0-1.8-0.8-1.8-1.8c0-1,0.8-1.8,1.8-1.8C225.2,168.9,226.1,169.7,226.1,170.7z M286.4,153.5c0-1,0.8-1.8,1.8-1.8
		c1,0,1.8,0.8,1.8,1.8c0,1-0.8,1.8-1.8,1.8C287.1,155.3,286.4,154.5,286.4,153.5z M292.9,178.5c0,1-0.8,1.8-1.8,1.8
		c-1,0-1.8-0.8-1.8-1.8c0-1,0.8-1.8,1.8-1.8C292.1,176.6,292.9,177.5,292.9,178.5z"/>
</g>
</svg>
