<?xml version="1.0" standalone="no"?>
<!DOCTYPE svg PUBLIC "-//W3C//DTD SVG 20010904//EN"
 "http://www.w3.org/TR/2001/REC-SVG-20010904/DTD/svg10.dtd">
<svg version="1.0" xmlns="http://www.w3.org/2000/svg"
 width="200.000000pt" height="200.000000pt" viewBox="0 0 200.000000 200.000000"
 preserveAspectRatio="xMidYMid meet">

<g transform="translate(0.000000,200.000000) scale(0.100000,-0.100000)"
fill="#000000" stroke="none">
<path d="M385 1860 c-5 -8 100 -121 298 -318 l306 -305 37 6 c34 6 74 42 338
306 221 221 298 303 289 312 -7 7 -51 10 -127 7 l-116 -3 -172 -171 c-95 -95
-183 -177 -195 -183 -17 -9 -29 -9 -45 0 -13 6 -101 88 -196 183 l-172 171
-119 3 c-85 3 -121 0 -126 -8z"/>
<path d="M1568 1342 l-298 -298 0 -44 0 -44 298 -298 c226 -226 302 -297 315
-292 14 5 17 21 17 104 0 54 -5 111 -11 127 -5 15 -89 107 -185 204 -133 134
-174 181 -174 200 0 20 40 66 169 197 94 94 177 184 186 201 22 43 18 234 -5
239 -9 1 -142 -125 -312 -296z"/>
<path d="M957 742 c-71 -57 -578 -573 -574 -585 4 -13 183 -23 227 -12 14 4
103 84 202 182 153 153 181 176 208 176 27 0 55 -23 203 -170 95 -94 182 -176
194 -182 29 -15 230 -15 239 0 4 7 -116 134 -297 315 -338 338 -331 332 -402
276z"/>
</g>
</svg>
